<svg id="Rotation" xmlns="http://www.w3.org/2000/svg" width="184" height="184" viewBox="0 0 184 184">
  <defs>
    <style>
      .cls-1, .cls-2, .cls-3 {
        fill-rule: evenodd;
      }

      .cls-2, .cls-4 {
        fill: none;
      }

      .cls-2, .cls-3, .cls-4 {
        stroke: #000;
        stroke-width: 10px;
      }

      .cls-4 {
        stroke-dasharray: 13.333 10;
      }
    </style>
  </defs>
  <g id="Custom_" data-name="Custom°">
    <path id="R_custom_2_SVG" data-name="R custom 2 SVG" class="cls-1" d="M58.985,111.58L79.262,89.63l2.214,2.045a25.182,25.182,0,0,1,4.952,5.671,11.44,11.44,0,0,1,1.263,5.222,101.261,101.261,0,0,1-1.383,13.047l-2.672,18.737L96.7,146.42l2.871-16.36a81.8,81.8,0,0,0,1.668-14.28,34.6,34.6,0,0,0-1.774-9.815q8.049,5.576,15.191,5.026a18.789,18.789,0,0,0,12.609-6.466,20.2,20.2,0,0,0,5.292-10.467,16.829,16.829,0,0,0-1.637-10.852q-2.621-5.047-11.293-13.059L96.635,48.909l-48.573,52.58ZM99.341,67.895l8.524,7.875q6.644,6.136,7.806,7.543a9.2,9.2,0,0,1,2.209,5.863,8.431,8.431,0,0,1-2.5,5.633,9.126,9.126,0,0,1-4.752,2.922,7.991,7.991,0,0,1-5.117-.606Q102.956,95.964,95.1,88.7l-8.082-7.466Z"/>
    <path id="circle_copy_3" data-name="circle copy 3" class="cls-2" d="M92,21.275c18.721,0,40.349,8.948,53,22.725"/>
    <path id="Triangle_1_custom" data-name="Triangle 1 custom" class="cls-3" d="M154.718,55.819l-18.862-3.955,18.638-15.317Z"/>
    <circle id="dotted_4_SVG" data-name="dotted 4 SVG" class="cls-4" cx="92" cy="92" r="71"/>
  </g>
</svg>
