<svg id="Rotation" xmlns="http://www.w3.org/2000/svg" width="184" height="184" viewBox="0 0 184 184">
  <defs>
    <style>
      .cls-1, .cls-2, .cls-3 {
        fill-rule: evenodd;
      }

      .cls-2 {
        fill: none;
      }

      .cls-2, .cls-3 {
        stroke: #000;
        stroke-width: 10px;
      }
    </style>
  </defs>
  <g id="_90_" data-name="90°">
    <path id="R_copy_4_SVG" data-name="R copy 4 SVG" class="cls-1" d="M56.309,80.809H86.192v3.014a25.184,25.184,0,0,1-.806,7.486,11.44,11.44,0,0,1-2.978,4.471,101.311,101.311,0,0,1-10.523,7.838L56.309,114.369v17.784l13.965-8.993A81.7,81.7,0,0,0,81.9,114.7a34.585,34.585,0,0,0,6.006-7.963q1.367,9.7,6.616,14.57a18.792,18.792,0,0,0,13.305,4.873,20.2,20.2,0,0,0,11.279-3.216,16.83,16.83,0,0,0,6.861-8.565q1.928-5.351,1.928-17.157v-31.3H56.309V80.809Zm59.473,0V92.414q0,9.043-.244,10.852a9.2,9.2,0,0,1-2.808,5.6,8.43,8.43,0,0,1-5.835,1.985,9.125,9.125,0,0,1-5.371-1.507,7.99,7.99,0,0,1-3.027-4.17q-0.879-2.664-.879-13.364v-11h18.164Z"/>
    <path id="circle_copy_2" data-name="circle copy 2" class="cls-2" d="M92,21.275A70.725,70.725,0,0,1,162.725,92"/>
    <path id="Triangle_1" data-name="Triangle 1" class="cls-3" d="M160.5,112L148.45,97h24.1Z"/>
  </g>
</svg>
