<svg id="Flip" xmlns="http://www.w3.org/2000/svg" width="184" height="184" viewBox="0 0 184 184">
  <defs>
    <style>
      .cls-1, .cls-2 {
        fill-rule: evenodd;
      }

      .cls-2 {
        stroke: #000;
        stroke-width: 1px;
      }
    </style>
  </defs>
  <g id="flipped_horizontally" data-name="flipped horizontally">
    <path id="FLIP_Flipped_Horizontally_Shape_for_SVG" data-name="FLIP Flipped Horizontally Shape for SVG" class="cls-1" d="M166.042,172.977V147.1h-25.5V136.8h25.5V122.387H136.5v-10.3h41.875v60.89H166.042Zm-83.042,0V162.718h30.667V112.585H126v60.392H83Zm-20.75,0v-60.89H74.583v60.89H62.25Zm-24.083,0V150.008H30.125a70.671,70.671,0,0,1-12.792-.872,17.908,17.908,0,0,1-6.4-2.887,16.714,16.714,0,0,1-5.187-6,19.817,19.817,0,0,1-2.042-9.428q0-7.267,3.542-11.858A16.019,16.019,0,0,1,16.042,113q3.417-.912,14.667-0.913H50.5v60.89H38.167Zm-5.958-50.59a59.43,59.43,0,0,0-8.875.416,8.542,8.542,0,0,0-4.958,2.7,7.853,7.853,0,0,0-1.958,5.483,7.989,7.989,0,0,0,5.25,7.725q2.459,0.957,9.75.956h6.75V122.387H32.208Z"/>
    <path id="Horizantal" class="cls-2" d="M21.991,92.492l70-15.5v31Z"/>
    <path class="cls-2" d="M92,85h67v15H92V85Z"/>
  </g>
  <path id="FLIP_Shape_for_SVG" data-name="FLIP Shape for SVG" class="cls-1" d="M17.959,73.1V47.139h25.5V36.806h-25.5V22.348H47.5V12.014H5.625V73.1H17.959ZM101,73.1V62.806H70.334V12.514H58V73.1h43Zm20.75,0V12.014H109.417V73.1H121.75Zm24.083,0V50.056h8.042a70.416,70.416,0,0,0,12.792-.875,17.884,17.884,0,0,0,6.4-2.9,16.746,16.746,0,0,0,5.187-6.021,19.93,19.93,0,0,0,2.042-9.458q0-7.291-3.542-11.9a16.019,16.019,0,0,0-8.792-5.979q-3.417-.916-14.666-0.917H133.5V73.1h12.333Zm5.959-50.75a59.363,59.363,0,0,1,8.875.417,8.533,8.533,0,0,1,4.958,2.708,7.894,7.894,0,0,1,1.958,5.5,8.213,8.213,0,0,1-1.4,4.75,8.1,8.1,0,0,1-3.855,3q-2.459.959-9.75,0.958h-6.75V22.348h5.959Z"/>
</svg>
