<svg id="Rotation" xmlns="http://www.w3.org/2000/svg" width="184" height="184" viewBox="0 0 184 184">
  <defs>
    <style>
      .cls-1, .cls-2, .cls-3 {
        fill-rule: evenodd;
      }

      .cls-2 {
        fill: none;
      }

      .cls-2, .cls-3 {
        stroke: #000;
        stroke-width: 10px;
      }
    </style>
  </defs>
  <g id="_270_" data-name="270°">
    <path id="R_270_4_SVG" data-name="R 270 4 SVG" class="cls-1" d="M125.206,106.8H95.429v-3.026a25.457,25.457,0,0,1,.8-7.515A11.489,11.489,0,0,1,99.2,91.773a100.93,100.93,0,0,1,10.485-7.867l15.521-10.792V55.261L111.29,64.288a81.54,81.54,0,0,0-11.58,8.5,34.722,34.722,0,0,0-5.985,7.993q-1.362-9.732-6.593-14.625a18.645,18.645,0,0,0-13.258-4.892A20.016,20.016,0,0,0,62.635,64.49a16.875,16.875,0,0,0-6.836,8.6q-1.921,5.371-1.922,17.222v31.418h71.329V106.8Zm-59.262,0V95.152q0-9.078.243-10.893a9.255,9.255,0,0,1,2.8-5.623A8.364,8.364,0,0,1,74.8,76.644a9.044,9.044,0,0,1,5.352,1.513,8.017,8.017,0,0,1,3.017,4.186q0.876,2.674.876,13.415V106.8h-18.1Z"/>
    <path id="circle_270" data-name="circle 270" class="cls-2" d="M92,21.275A70.725,70.725,0,1,1,21.275,92"/>
    <path id="Triangle_1_copy" data-name="Triangle 1 copy" class="cls-3" d="M22.5,71.978L34.567,86.994H10.44Z"/>
  </g>
</svg>
