<svg id="Rotation" xmlns="http://www.w3.org/2000/svg" width="184" height="184" viewBox="0 0 184 184">
  <defs>
    <style>
      .cls-1, .cls-2, .cls-3 {
        fill-rule: evenodd;
      }

      .cls-2 {
        fill: none;
      }

      .cls-2, .cls-3 {
        stroke: #000;
        stroke-width: 10px;
      }
    </style>
  </defs>
  <g id="_180_" data-name="180°">
    <path id="R_180_4_SVG" data-name="R 180 4 SVG" class="cls-1" d="M102.3,56.513V86.29H99.276a25.457,25.457,0,0,1-7.514-.8,11.49,11.49,0,0,1-4.488-2.968,100.989,100.989,0,0,1-7.867-10.485L68.613,56.513H50.761l9.027,13.915a81.5,81.5,0,0,0,8.5,11.58,34.722,34.722,0,0,0,7.993,5.985q-9.732,1.362-14.625,6.593a18.645,18.645,0,0,0-4.892,13.258,20.015,20.015,0,0,0,3.228,11.239,16.871,16.871,0,0,0,8.6,6.836q5.371,1.922,17.222,1.922h31.418V56.513H102.3Zm0,59.262H90.652q-9.078,0-10.893-.243a9.258,9.258,0,0,1-5.623-2.8,8.363,8.363,0,0,1-1.992-5.814,9.044,9.044,0,0,1,1.513-5.352,8.017,8.017,0,0,1,4.186-3.017q2.674-.876,13.415-0.876H102.3v18.1Z"/>
    <path id="circle_180_copy" data-name="circle 180 copy" class="cls-2" d="M92,21.275a70.725,70.725,0,0,1,0,141.45"/>
    <path id="Triangle_180" data-name="Triangle 180" class="cls-3" d="M71.978,161.5L86.994,149.44v24.127Z"/>
  </g>
</svg>
