<svg id="stereo_to_mono_logo" data-name="stereo to mono logo" xmlns="http://www.w3.org/2000/svg" width="184" height="184" viewBox="0 0 184 184">
  <defs>
    <style>
      .cls-1, .cls-2 {
        fill-rule: evenodd;
      }

      .cls-2 {
        stroke: #000;
        stroke-width: 1px;
      }
    </style>
  </defs>
  <path id="MONO_Shape_for_SVG" data-name="MONO Shape for SVG" class="cls-1" d="M12.78,172.005V138.947l8.307,33.058h8.164l8.336-33.058v33.058h7.878V130.01H32.746l-7.534,28.646-7.62-28.646H4.9v42H12.78Zm44.917-5q5.528,5.715,14.9,5.715,9.252,0,14.781-5.744T92.9,151.065q0-10.255-5.572-16.013t-14.853-5.758a23.065,23.065,0,0,0-9.052,1.661A16.35,16.35,0,0,0,58,134.736a19.775,19.775,0,0,0-3.91,5.758,26.708,26.708,0,0,0-1.919,10.771Q52.168,161.291,57.7,167.006Zm6.417-26.87a10.783,10.783,0,0,1,8.451-3.595,10.71,10.71,0,0,1,8.407,3.552q3.165,3.552,3.165,10.771,0,7.305-3.251,10.957a11.326,11.326,0,0,1-16.686-.029q-3.294-3.679-3.294-10.813Q60.905,143.731,64.113,140.136Zm43.37,31.869V144.619l16.93,27.386h8.508V130.01h-7.878v28.044L107.856,130.01h-8.25v42h7.877Zm38.214-5q5.528,5.715,14.9,5.715,9.252,0,14.781-5.744t5.528-15.912q0-10.255-5.571-16.013t-14.853-5.758a23.063,23.063,0,0,0-9.052,1.661A16.359,16.359,0,0,0,146,134.736a19.782,19.782,0,0,0-3.91,5.758,26.718,26.718,0,0,0-1.919,10.771Q140.168,161.291,145.7,167.006Zm6.416-26.87a11.728,11.728,0,0,1,16.858-.043q3.165,3.552,3.166,10.771,0,7.305-3.251,10.957a11.327,11.327,0,0,1-16.687-.029q-3.294-3.679-3.294-10.813Q148.905,143.731,152.113,140.136Z"/>
  <path id="Triangle_182" data-name="Triangle 182" class="cls-2" d="M92,121.315L31.277,65.5H152.714Z"/>
  <path id="Stereo_Shape_for_SVG" data-name="Stereo Shape for SVG" class="cls-1" d="M7.925,49.068q4.268,3.681,12.232,3.681a23.793,23.793,0,0,0,9.138-1.532,12.015,12.015,0,0,0,5.672-4.684,12.369,12.369,0,0,0,2.005-6.76A12.485,12.485,0,0,0,35.3,33.084a11.8,11.8,0,0,0-4.641-4.268A41.129,41.129,0,0,0,21.5,25.794q-6.187-1.461-7.792-2.807a3.224,3.224,0,0,1-1.26-2.549A3.059,3.059,0,0,1,13.8,17.83a9.689,9.689,0,0,1,5.786-1.518,8.549,8.549,0,0,1,5.371,1.418,7.2,7.2,0,0,1,2.335,4.655l8.479-.372a12.235,12.235,0,0,0-4.2-9.253q-4-3.466-11.9-3.466a21.01,21.01,0,0,0-8.264,1.461,11.388,11.388,0,0,0-5.242,4.254,10.794,10.794,0,0,0-1.819,6A10.927,10.927,0,0,0,8.211,29.46q2.75,2.464,9.568,4.154,5.3,1.318,6.789,1.833a6.989,6.989,0,0,1,3.051,1.819,3.825,3.825,0,0,1,.874,2.535,5.156,5.156,0,0,1-2.077,4.053q-2.077,1.734-6.173,1.733A9.136,9.136,0,0,1,14.1,43.64a10.063,10.063,0,0,1-3.022-6.1l-8.25.8Q3.656,45.387,7.925,49.068ZM52.5,21.583V10.841l-8.078,4.7v6.044h-3.7V28h3.7V41.263a39,39,0,0,0,.258,5.672,7.459,7.459,0,0,0,1.132,3.137,5.726,5.726,0,0,0,2.564,1.891,10.084,10.084,0,0,0,3.924.73,16,16,0,0,0,6.359-1.2l-0.687-6.245a10.416,10.416,0,0,1-3.237.773,2.269,2.269,0,0,1-1.361-.4,1.766,1.766,0,0,1-.716-1.017,30.469,30.469,0,0,1-.157-4.34V28H58V21.583H52.5ZM79.253,45.645a4.929,4.929,0,0,1-3.18,1.031,6.091,6.091,0,0,1-4.641-1.991,8.141,8.141,0,0,1-1.948-5.572H89.651q0.172-9.252-3.753-13.736T75.185,20.9a13.02,13.02,0,0,0-10,4.283q-3.953,4.283-3.953,11.845a17.417,17.417,0,0,0,3.008,10.484q3.809,5.185,11.745,5.185a14.348,14.348,0,0,0,8.35-2.306,13.157,13.157,0,0,0,4.884-6.718L81.2,42.322A6.369,6.369,0,0,1,79.253,45.645ZM69.628,34.187a7.426,7.426,0,0,1,1.69-5.213,5.809,5.809,0,0,1,8.536-.1,7.751,7.751,0,0,1,1.8,5.314H69.628Zm34.289,8.422q0-7.763.673-10.2a6.354,6.354,0,0,1,1.848-3.366,4.465,4.465,0,0,1,2.864-.931,7.065,7.065,0,0,1,3.781,1.318l2.493-7.018a10.222,10.222,0,0,0-5.3-1.518,6.348,6.348,0,0,0-3.48.974,13,13,0,0,0-3.452,4.039V21.583H95.867V52h8.05v-9.4Zm30.794,3.036a4.928,4.928,0,0,1-3.18,1.031,6.09,6.09,0,0,1-4.64-1.991,8.138,8.138,0,0,1-1.948-5.572h20.166q0.172-9.252-3.752-13.736T130.643,20.9a13.019,13.019,0,0,0-10,4.283q-3.954,4.283-3.953,11.845A17.412,17.412,0,0,0,119.7,47.507q3.809,5.185,11.744,5.185a14.35,14.35,0,0,0,8.351-2.306,13.164,13.164,0,0,0,4.884-6.718l-8.021-1.346A6.375,6.375,0,0,1,134.711,45.645Zm-9.625-11.458a7.427,7.427,0,0,1,1.69-5.213,5.809,5.809,0,0,1,8.537-.1,7.753,7.753,0,0,1,1.8,5.314H125.086Zm26.7,11.072a12.967,12.967,0,0,0,5.772,5.543,17.663,17.663,0,0,0,7.978,1.891,15.056,15.056,0,0,0,11.215-4.54A15.675,15.675,0,0,0,181.2,36.708a15.493,15.493,0,0,0-4.411-11.329A15.19,15.19,0,0,0,165.477,20.9a16.62,16.62,0,0,0-8.093,1.977,13.568,13.568,0,0,0-5.6,5.729,16.455,16.455,0,0,0-1.977,7.763A18.465,18.465,0,0,0,151.784,45.259Zm8.422-15.4a7.022,7.022,0,0,1,10.584,0q2.135,2.406,2.135,6.875,0,4.584-2.135,6.99a7.022,7.022,0,0,1-10.584,0q-2.149-2.406-2.149-6.932T160.206,29.861Z"/>
</svg>
