<svg id="Volume" xmlns="http://www.w3.org/2000/svg" width="184" height="184" viewBox="0 0 184 184">
  <defs>
    <style>
      .cls-1, .cls-2 {
        fill-rule: evenodd;
      }

      .cls-2 {
        stroke: #000;
        stroke-width: 1px;
      }
    </style>
  </defs>
  <path id="_25_copy" data-name="25% copy" class="cls-1" d="M22.429,156.362a21.438,21.438,0,0,1,2.546-3.454q1.571-1.77,7.46-7.171a79.72,79.72,0,0,0,8.146-8.279,33.938,33.938,0,0,0,4.98-8.3,22.434,22.434,0,0,0,1.572-8.345,16.992,16.992,0,0,0-5.49-12.883q-5.49-5.18-15.1-5.179-8.766,0-14.609,4.471T4.986,121.963l12.4,1.24q0.354-5.445,2.656-7.792a8.287,8.287,0,0,1,6.2-2.346,8.348,8.348,0,0,1,6.176,2.235,8.662,8.662,0,0,1,2.236,6.4,13.691,13.691,0,0,1-2.568,7.614q-1.9,2.788-10.315,10.625-10.449,9.7-13.99,15.561a30.026,30.026,0,0,0-4.25,12.418H47.132V156.362h-24.7ZM62.494,164.2q5.666,4.825,14.654,4.825,11.244,0,17.576-8.589a23.431,23.431,0,0,0,4.648-14.3q0-9.606-5.755-15.628a19.02,19.02,0,0,0-22.534-3.94l1.948-11.023H96.494V103.9H63.6l-6.375,33.778,10.094,1.461q4.25-4.737,9.607-4.737a8.924,8.924,0,0,1,6.973,2.989q2.678,2.988,2.678,8.964,0,6.375-2.7,9.541a8.36,8.36,0,0,1-6.6,3.165,8.527,8.527,0,0,1-6.021-2.457,10.628,10.628,0,0,1-3.143-6.663l-12.4,1.284A19.871,19.871,0,0,0,62.494,164.2Zm47.392-32.208q3.828,4.185,10.6,4.184,6.552,0,10.382-4.206t3.829-12.927q0-8.764-3.829-12.949t-10.6-4.184q-6.552,0-10.381,4.206t-3.83,12.927Q106.056,127.807,109.886,131.99Zm7.326-21.537a3.738,3.738,0,0,1,6.154.044q1.416,2.126,1.417,8.456t-1.417,8.5a3.561,3.561,0,0,1-3.1,1.593,3.52,3.52,0,0,1-3.055-1.593q-1.461-2.169-1.461-8.5t1.461-8.5h0Zm46.839-8.545h-8.943L120.533,170.4h9.208Zm-10.382,64.415q3.829,4.2,10.6,4.2,6.552,0,10.382-4.2t3.829-12.972q0-8.721-3.829-12.927t-10.515-4.206q-6.641,0-10.47,4.206t-3.829,12.927Q149.84,162.117,153.669,166.323ZM161,144.807a3.451,3.451,0,0,1,3.055-1.594,3.559,3.559,0,0,1,3.1,1.594q1.416,2.169,1.417,8.5t-1.461,8.5a3.453,3.453,0,0,1-3.055,1.594A3.493,3.493,0,0,1,161,161.763q-1.461-2.126-1.461-8.456t1.461-8.5h0Z"/>
  <g id="Arrow">
    <g id="Down">
      <path id="Rectangle_3_copy" data-name="Rectangle 3 copy" class="cls-2" d="M147.5,70.523h-17V3.509h17V70.523Z"/>
      <path id="Down-2" data-name="Down" class="cls-2" d="M138.5,92.405L103.625,68.5h69.75Z"/>
    </g>
  </g>
  <g id="speaker">
    <path class="cls-2" d="M36,25.012H60.011a3,3,0,0,1,3,3V65a3,3,0,0,1-3,3H36a3,3,0,0,1-3-3V28.012A3,3,0,0,1,36,25.012Z"/>
    <path id="Triangle_181" data-name="Triangle 181" class="cls-2" d="M34,46L92,1V91Z"/>
  </g>
</svg>
