<svg id="Flip" xmlns="http://www.w3.org/2000/svg" width="184" height="184" viewBox="0 0 184 184">
  <defs>
    <style>
      .cls-1, .cls-2 {
        fill-rule: evenodd;
      }

      .cls-2 {
        stroke: #000;
        stroke-width: 1px;
      }
    </style>
  </defs>
  <g id="Flipped_vertically" data-name="Flipped vertically">
    <path id="FLIP_Fliped_vertical_Shape_for_SVG" data-name="FLIP  Fliped vertical Shape for SVG" class="cls-1" d="M17.959,112.023V137.9h25.5v10.3h-25.5v14.413H47.5v10.3H5.625v-60.89H17.959Zm83.042,0v10.259H70.334v50.133H58V112.023h43Zm20.75,0v60.89H109.417v-60.89H121.75Zm24.083,0v22.969h8.042a70.681,70.681,0,0,1,12.792.872,17.916,17.916,0,0,1,6.4,2.887,16.71,16.71,0,0,1,5.187,6,19.813,19.813,0,0,1,2.042,9.428q0,7.268-3.542,11.858A16.019,16.019,0,0,1,167.958,172q-3.417.912-14.666,0.913H133.5v-60.89h12.333Zm5.959,50.59a59.433,59.433,0,0,0,8.875-.416,8.541,8.541,0,0,0,4.958-2.7,7.855,7.855,0,0,0,1.958-5.483,7.986,7.986,0,0,0-5.25-7.725q-2.459-.957-9.75-0.956h-6.75v17.279h5.959Z"/>
    <path id="Vertical" class="cls-2" d="M92.5,105.378L55.53,78.5h73.94Z"/>
  </g>
  <path id="FLIP_Shape_for_SVG" data-name="FLIP Shape for SVG" class="cls-1" d="M17.959,73.1V47.139h25.5V36.806h-25.5V22.348H47.5V12.014H5.625V73.1H17.959ZM101,73.1V62.806H70.334V12.514H58V73.1h43Zm20.75,0V12.014H109.417V73.1H121.75Zm24.083,0V50.056h8.042a70.416,70.416,0,0,0,12.792-.875,17.884,17.884,0,0,0,6.4-2.9,16.746,16.746,0,0,0,5.187-6.021,19.93,19.93,0,0,0,2.042-9.458q0-7.291-3.542-11.9a16.019,16.019,0,0,0-8.792-5.979q-3.417-.916-14.666-0.917H133.5V73.1h12.333Zm5.959-50.75a59.363,59.363,0,0,1,8.875.417,8.533,8.533,0,0,1,4.958,2.708,7.894,7.894,0,0,1,1.958,5.5,8.213,8.213,0,0,1-1.4,4.75,8.1,8.1,0,0,1-3.855,3q-2.459.959-9.75,0.958h-6.75V22.348h5.959Z"/>
</svg>
